<svg width="130" height="136" viewBox="0 0 130 136" fill="none" xmlns="http://www.w3.org/2000/svg">
<path d="M82.5521 24.8457C86.1176 24.8457 89.1977 25.5858 91.793 27.065C94.4122 28.5447 96.4741 30.703 97.9777 33.5407C99.4812 36.3785 100.233 39.6165 100.233 43.2545C100.233 46.8924 99.4569 50.1305 97.9046 52.9683C96.3767 55.806 94.2791 57.9767 91.6112 59.4802C88.9672 60.9599 85.8022 61.6995 82.1155 61.6995C76.2463 61.6995 71.832 59.8681 68.8731 56.2059C65.9385 52.5436 64.4712 48.2385 64.4712 43.2907C64.4712 39.6771 65.2351 36.4758 66.763 33.6863C68.2909 30.8729 70.4253 28.7022 73.1662 27.1743C75.9309 25.6221 79.0597 24.8457 82.5521 24.8457ZM82.2611 28.3749C79.4963 28.3749 77.1558 29.4662 75.24 31.6492C72.8145 34.3658 71.6015 38.3191 71.6015 43.5093C71.6015 48.5053 72.6327 52.3131 74.6941 54.9328C76.5618 57.2609 79.096 58.4252 82.2978 58.4252C84.3592 58.4252 86.1901 57.8793 87.791 56.788C89.4163 55.6967 90.7256 53.9627 91.72 51.5854C92.7144 49.1843 93.2117 46.3709 93.2117 43.1452C93.2117 39.9926 92.6782 37.1667 91.6112 34.6688C90.7862 32.6799 89.5375 31.1396 87.864 30.0483C86.2144 28.9327 84.3473 28.3749 82.2611 28.3749Z" fill="#F2AF29"/>
<path d="M52.7509 89.418C56.3163 89.418 59.3965 90.1581 61.9918 91.6373C64.611 93.117 66.6729 95.2752 68.1764 98.113C69.68 100.951 70.432 104.189 70.432 107.827C70.432 111.465 69.6557 114.703 68.1034 117.541C66.5755 120.378 64.4779 122.549 61.81 124.052C59.166 125.532 56.0009 126.272 52.3143 126.272C46.4451 126.272 42.0308 124.44 39.072 120.778C36.1373 117.116 34.6699 112.811 34.6699 107.863C34.6699 104.249 35.4339 101.048 36.9619 98.2585C38.4899 95.4451 40.6242 93.2745 43.365 91.7466C46.1297 90.1943 49.2585 89.418 52.7509 89.418ZM52.4599 92.9471C49.6951 92.9471 47.3546 94.0384 45.4388 96.2215C43.0133 98.938 41.8003 102.891 41.8003 108.082C41.8003 113.078 42.8315 116.885 44.8929 119.505C46.7605 121.833 49.2948 122.997 52.4966 122.997C54.558 122.997 56.3889 122.452 57.9898 121.36C59.615 120.269 60.9244 118.535 61.9188 116.158C62.9132 113.757 63.4104 110.943 63.4104 107.717C63.4104 104.565 62.877 101.739 61.81 99.241C60.985 97.2522 59.7362 95.7119 58.0628 94.6206C56.4132 93.5049 54.5461 92.9471 52.4599 92.9471Z" fill="#F2AF29"/>
<path d="M0 0H64.3208C80.0374 0 90.8057 0.711301 96.6267 2.13439C105.229 4.20421 112.02 7.9554 117 13.388C122.045 18.8211 124.567 25.3534 124.567 32.9849C124.567 38.4826 123.241 43.4303 120.589 47.8283C117.938 52.1616 114.089 55.8805 109.045 58.985C105.811 60.9903 101.413 62.7039 95.8508 64.127C102.9 65.4205 108.269 66.9727 111.955 68.7837C117.517 71.4998 121.915 75.3806 125.149 80.4252C128.383 85.4699 130 91.1618 130 97.4998C130 103.644 128.415 109.336 125.246 114.574C122.077 119.813 117.582 124.114 111.761 127.478C106.005 130.841 99.2786 133.007 91.582 133.978C83.8854 134.883 75.9628 135.336 67.8132 135.336H0V127.187H4.5597C8.95772 127.187 11.9652 126.508 13.5821 125.149C15.9105 123.273 17.0746 120.169 17.0746 115.836V21.8282C17.0746 17.4303 16.7189 14.4231 16.0075 12.8058C15.296 11.189 14.2289 10.0247 12.806 9.31342C11.3831 8.60213 8.63436 8.24648 4.5597 8.24648H0V0ZM35.2164 10.7688V60.343H59.9551C71.5321 60.343 79.4552 59.7937 83.724 58.6939C90.3854 56.948 95.4624 53.9726 98.9553 49.7684C102.512 45.5647 104.291 40.1639 104.291 33.5671C104.291 28.0048 102.674 23.3804 99.4401 19.6943C96.271 15.9426 92.0022 13.388 86.6342 12.03C83.1418 11.189 75.8977 10.7688 64.9029 10.7688H35.2164ZM35.2164 69.6564V114.09C35.2164 118.552 35.4104 121.204 35.7985 122.045C36.3159 123.209 37.3507 124.018 38.9029 124.47C40.0025 124.793 43.107 124.955 48.2163 124.955H61.4105C74.4751 124.955 83.7886 124.244 89.3508 122.821C94.9776 121.333 99.7634 118.261 103.709 113.604C107.654 108.883 109.627 103.224 109.627 96.6266C109.627 91.0644 108.01 86.1494 104.776 81.8806C101.607 77.5473 97.1765 74.4428 91.4852 72.5672C85.8579 70.627 75.8332 69.6564 61.4105 69.6564H35.2164Z" fill="#595758"/>
</svg>
